# xmcd
#
# Track frame offsets:
#	150
#	12385
#	25405
#	36791
#	49031
#	62367
#	76571
#	90061
#	101724
#	120009
#	134363
#	148827
#	162245
#	176119
#	190771
#	204232
#	216525
#	229089
#	242930
#	257355
#	272043
#	287526
#	301491
#
# Disc length: 4158 seconds
#
# Revision: 0
# Processed by: cddbd v1.5.2PL0 Copyright (c) Steve Scherf et al.
# Submitted via: dBpowerAMP V4.0
#
DISCID=33103c17
DTITLE=Various Artist - BandFM
DYEAR=2011
DGENRE=Country
TTITLE0=michél teló - 01
TTITLE1=gustavo lima - 02
TTITLE2=luan Santana - 03
TTITLE3=humberto e ronaldo - 04
TTITLE4=exalta Samba - 05
TTITLE5=fernando and Sorocaba - 06
TTITLE6=João Néto e frederico - 07
TTITLE7=Parangolé - 08
TTITLE8=Cristiano araujo - 09
TTITLE9=Michél teló - 10
TTITLE10=Sorrizo Maroto - 11
TTITLE11=Luiz Fernando e Zé Miguél - 12
TTITLE12=Kléo Dibah e Rafaél - 13
TTITLE13=Léva Nóis  - 14
TTITLE14=Bruno - 1
TTITLE15=Pixóte - 16
TTITLE16=Munhoz - 17
TTITLE17=Exalta - 18
TTITLE18=Taine - 19
TTITLE19=Sampa - 20
TTITLE20=Geovane - 21
TTITLE21=Israél - 22
TTITLE22=Latino - 23
EXTD=Band FM
EXTT0=
EXTT1=
EXTT2=
EXTT3=
EXTT4=
EXTT5=
EXTT6=
EXTT7=
EXTT8=
EXTT9=
EXTT10=
EXTT11=
EXTT12=
EXTT13=
EXTT14=
EXTT15=
EXTT16=
EXTT17=
EXTT18=
EXTT19=
EXTT20=
EXTT21=
EXTT22=
PLAYORDER=
